<svg fill="none" height="121" viewBox="0 0 626 121" width="626" xmlns="http://www.w3.org/2000/svg" xmlns:xlink="http://www.w3.org/1999/xlink"><clipPath id="a"><path d="m0 0h626v121h-626z"/></clipPath><mask id="b" height="121" maskUnits="userSpaceOnUse" width="626" x="0" y="0"><path d="m626 0h-626v121h626z" fill="#fff"/></mask><g clip-path="url(#a)"><g mask="url(#b)"><g fill="#ed6b23"><path d="m43.9812 2.50503h-25.3303c-10.80707 0-18.6509 7.82827-18.6509 18.61377v78.7624c0 10.7858 7.84383 18.6138 18.6509 18.6138h25.3303c36.221 0 61.5168-23.8465 61.5168-57.9915s-25.2958-57.99847-61.5168-57.99847zm1.255 85.19897h-12.9475v-54.408h12.9475c16.4755 0 27.9798 11.1892 27.9798 27.2075s-11.5043 27.2074-27.9798 27.2074"/><path d="m214.189 16.4706c0-9.54697-6.791-16.4706-16.141-16.4706s-16.141 6.92363-16.141 16.4706v54.053c0 10.4376-7.879 18.6138-17.94 18.6138s-17.932-8.1762-17.932-18.6138v-54.053c0-9.54697-6.791-16.4706-16.141-16.4706s-16.141 6.92363-16.141 16.4706v55.4864c0 28.877 20.652 49.043 50.221 49.043 29.57 0 50.222-20.166 50.222-49.043v-55.4864z"/><path d="m427.764 90.9814-27.443-30.965 25.588-29.9212c3.73-4.3212 5.697-8.7189 5.697-12.727 0-9.74177-7.482-17.3682-17.034-17.3682-4.859 0-9.364 2.65812-13.77 8.11352l-28.914 38.63318v-30.2761c0-9.85314-6.491-16.4706-16.141-16.4706s-16.141 6.61746-16.141 16.4706v88.0654c0 9.853 6.484 16.464 16.141 16.464s16.141-6.617 16.141-16.464v-30.5332l31.041 39.3912c4.483 5.4 8.324 7.606 13.254 7.606 9.566 0 16.503-7.299 16.503-17.361 0-4.5302-1.792-9.1506-4.922-12.6576z"/><path d="m473.223 16.4706c0-9.85314-6.491-16.4706-16.141-16.4706-9.649 0-16.141 6.61746-16.141 16.4706v88.0654c0 9.847 6.485 16.464 16.141 16.464 9.657 0 16.141-6.617 16.141-16.464z"/></g><path d="m625.888 17.41c1.046-8.90681-5.612-14.56401-12.417-15.36422-5.662-.66105-10.005 1.0368-12.92 5.05181-2.182 3.00601-3.528 7.52201-4.365 14.63361-.864 7.3689-.78 12.3164.265 15.559 1.465 4.349 4.825 7.0489 9.469 7.5916 8.771 1.0299 12.933-6.0399 17.981-20.3325 1.046-2.9434 1.827-5.7476 1.994-7.1532" fill="#c63663"/><g fill="#ed6b23"><path d="m257.996 59.5641v44.9719c0 9.847-6.485 16.471-16.141 16.471-9.657 0-16.141-6.618-16.141-16.471v-88.0654c0-9.85314 6.491-16.4706 16.141-16.4706 4.657 0 8.903 1.71177 11.385 4.23768 2.483 2.52591 42.992 57.20522 42.992 57.20522v-44.9723c0-9.85314 6.491-16.4706 16.147-16.4706 9.657 0 16.141 6.61746 16.141 16.4706v88.0654c0 9.847-6.484 16.471-16.141 16.471-4.657 0-8.882-1.684-11.385-4.238-2.503-2.553-42.991-57.2049-42.991-57.2049"/><path d="m516.73 59.5641v44.9719c0 9.847-6.484 16.471-16.141 16.471-9.656 0-16.14-6.618-16.14-16.471v-88.0654c0-9.85314 6.491-16.4706 16.14-16.4706 4.658 0 8.904 1.71177 11.386 4.23768 2.475 2.52591 42.991 57.20522 42.991 57.20522v-44.9723c0-9.85314 6.491-16.4706 16.141-16.4706s16.141 6.61746 16.141 16.4706v88.0654c0 9.847-6.484 16.471-16.141 16.471-4.65 0-8.876-1.684-11.386-4.238-2.503-2.553-42.991-57.2049-42.991-57.2049z"/><path d="m604.344 108.99h-2.698c-.53 0-.893.362-.893.897v6.43c0 .536.342.891.865.891s.871-.369.871-.891v-2.101h1.067l1.938 2.609c.175.243.433.383.712.383.536 0 .871-.334.871-.87 0-.209-.097-.383-.314-.696l-1.199-1.663.391-.278c.648-.467 1.004-1.211 1.004-2.102 0-1.538-1.081-2.616-2.622-2.616m-.6 3.987h-1.255v-2.749h1.255c.872 0 1.479.571 1.479 1.378s-.607 1.371-1.479 1.371z"/><path d="m603.751 105.184c-4.497 0-8.157 3.548-8.157 7.911s3.66 7.905 8.157 7.905c4.498 0 8.151-3.549 8.151-7.905s-3.653-7.911-8.151-7.911zm0 14.403c-3.59 0-6.505-2.908-6.505-6.492 0-3.583 2.915-6.492 6.505-6.492 3.591 0 6.513 2.909 6.513 6.492 0 3.584-2.915 6.492-6.513 6.492z"/></g></g></g></svg>